<?xml version="1.0" encoding="UTF-8" standalone="no"?>
<svg xmlns="http://www.w3.org/2000/svg"
                  xmlns:xlink="http://www.w3.org/1999/xlink">
	<g transform="translate(92 55)" fill="#fff" stroke-width="0">
	<path d="M11.471529006958008,3.464646816253662
		L57.357643127441406,-20.019981384277344
		Q63.09341049194336,-22.9555606842041 63.09341049194336,-13.619755744934082
		L63.09341049194336,61.06667709350586
		Q63.09341049194336,70.40248107910156 57.357643127441406,73.33805847167969
		L11.471529006958008,96.82268524169922
		Q5.735764503479004,99.75826263427734 5.735764503479004,90.4224624633789
		L5.735764503479004,15.736029624938965
	    Q5.735764503479004,6.400225639343262 11.471529006958008,3.464646816253662Z" />
	<path d="M-8.191520690917969,16.6160945892334
		L-8.191520690917969,91.30252838134766
		Q-8.191520690917969,100.6383285522461 -16.383041381835938,98.58281707763672
		L-81.91520690917969,82.13870239257812
		Q-90.10672760009766,80.08319091796875 -90.10672760009766,70.74738311767578
		L-90.10672760009766,-3.9390478134155273
		Q-90.10672760009766,-13.27485179901123 -81.91520690917969,-11.219337463378906
		L-16.383041381835938,5.224775791168213
		Q-8.191520690917969,7.280289649963379 -8.191520690917969,16.6160945892334Z" />
	<path d="M3.280008316040039,-7.926671028137207
		L49.1661262512207,-31.411298751831055
		Q54.90188980102539,-34.34687805175781 46.71036911010742,-36.40239334106445
		L-18.821796417236328,-52.84650421142578
		Q-27.013317108154297,-54.90201950073242 -32.749080657958984,-51.9664421081543
		L-78.63520050048828,-28.481813430786133
		Q-84.37096405029297,-25.546234130859375 -76.179443359375,-23.490720748901367
		L-10.647276878356934,-7.04660701751709
		Q-2.455756187438965,-4.991092681884766 3.280008316040039,-7.926671028137207Z" />
	</g>
</svg>